<svg width="60" height="60" viewBox="0 0 60 60" fill="none" xmlns="http://www.w3.org/2000/svg">
<mask id="mask0_1836_18" style="mask-type:alpha" maskUnits="userSpaceOnUse" x="7" y="0" width="46" height="60">
<path d="M49.9969 0C51.3791 0 52.5 1.12069 52.5 2.50313V57.4969C52.5 58.8791 51.3791 60 49.9969 60H10C8.6193 60 7.5 58.8806 7.5 57.4999V32.5C7.5 31.1193 8.6193 30 10 30H19.6875V17.5C19.6875 16.1193 20.8068 15 22.1875 15H31.875V2.50313C31.875 1.12069 32.9957 0 34.3781 0H49.9969Z" fill="white"/>
</mask>
<g mask="url(#mask0_1836_18)">
<path d="M52.5 2.50313V57.4969C52.5 58.8791 51.3791 60 49.9969 60H34.3781C32.9957 60 31.875 58.8791 31.875 57.4969V2.50313C31.875 1.12069 32.9957 0 34.3781 0H49.9969C51.3795 0 52.5 1.12069 52.5 2.50313Z" fill="url(#paint0_linear_1836_18)"/>
<path d="M52.5 2.50313V57.4969C52.5 58.8791 51.3791 60 49.9969 60H34.3781C32.9957 60 31.875 58.8791 31.875 57.4969V2.50313C31.875 1.12069 32.9957 0 34.3781 0H49.9969C51.3795 0 52.5 1.12069 52.5 2.50313Z" fill="white" fill-opacity="0.2"/>
<g filter="url(#filter0_dd_1836_18)">
<path d="M40.3125 17.5V60H19.6875V17.5C19.6875 16.1193 20.8068 15 22.1875 15H37.8124C39.1931 15 40.3125 16.1193 40.3125 17.5Z" fill="url(#paint1_linear_1836_18)"/>
</g>
<path d="M7.5 32.5V57.4999C7.5 58.8806 8.6193 60 10 60H28.125V32.5C28.125 31.1193 27.0057 30 25.625 30H10C8.6193 30 7.5 31.1193 7.5 32.5Z" fill="url(#paint2_linear_1836_18)"/>
</g>
<defs>
<filter id="filter0_dd_1836_18" x="-150.334" y="-124.001" width="366.668" height="366.668" filterUnits="userSpaceOnUse" color-interpolation-filters="sRGB">
<feFlood flood-opacity="0" result="BackgroundImageFix"/>
<feColorMatrix in="SourceAlpha" type="matrix" values="0 0 0 0 0 0 0 0 0 0 0 0 0 0 0 0 0 0 127 0" result="hardAlpha"/>
<feOffset dy="6.333"/>
<feGaussianBlur stdDeviation="6.333"/>
<feColorMatrix type="matrix" values="0 0 0 0 0 0 0 0 0 0 0 0 0 0 0 0 0 0 0.2 0"/>
<feBlend mode="normal" in2="BackgroundImageFix" result="effect1_dropShadow_1836_18"/>
<feColorMatrix in="SourceAlpha" type="matrix" values="0 0 0 0 0 0 0 0 0 0 0 0 0 0 0 0 0 0 127 0" result="hardAlpha"/>
<feOffset dy="33.333"/>
<feGaussianBlur stdDeviation="66.667"/>
<feColorMatrix type="matrix" values="0 0 0 0 0 0 0 0 0 0 0 0 0 0 0 0 0 0 0.18 0"/>
<feBlend mode="normal" in2="effect1_dropShadow_1836_18" result="effect2_dropShadow_1836_18"/>
<feBlend mode="normal" in="SourceGraphic" in2="effect2_dropShadow_1836_18" result="shape"/>
</filter>
<linearGradient id="paint0_linear_1836_18" x1="28.4375" y1="-2.0726e-07" x2="54.2933" y2="56.5181" gradientUnits="userSpaceOnUse">
<stop stop-color="white"/>
<stop offset="0.0001"/>
</linearGradient>
<linearGradient id="paint1_linear_1836_18" x1="19.6858" y1="15" x2="41.4671" y2="58.5626" gradientUnits="userSpaceOnUse">
<stop stop-color="white"/>
<stop offset="1"/>
</linearGradient>
<linearGradient id="paint2_linear_1836_18" x1="7.49831" y1="30" x2="19.4919" y2="59.313" gradientUnits="userSpaceOnUse">
<stop/>
<stop offset="1" stop-color="white"/>
</linearGradient>
</defs>
</svg>
