<svg width="60" height="60" viewBox="0 0 60 60" fill="none" xmlns="http://www.w3.org/2000/svg">
<path d="M0 15.1555V44.8461H30.3225L60 15.1555H0ZM8.16563 20.683H8.175C10.3331 20.683 12.96 21.2905 14.8631 22.2655L12.8138 25.8411C10.7231 24.8268 9.67875 24.7386 8.48812 24.6693C6.72 24.5718 5.83125 25.2074 5.81062 25.8899C5.80125 26.7224 7.49062 27.4724 9.0825 27.9899C11.4844 28.753 14.55 29.7768 15.0206 32.7374L19.425 21.0974H24.54L29.6981 35.0324L29.6775 21.0974H35.6044C41.25 21.0974 43.905 23.0099 43.905 27.3955C43.905 31.3311 41.1825 33.6861 36.5625 33.6861H34.6575L34.6294 38.9193L25.665 38.9099L25.0406 36.6355C24.1125 36.9486 23.0681 37.1155 21.9637 37.1155C20.8219 37.1155 19.7456 36.9374 18.8006 36.6186L17.91 38.9118L12.9094 38.9211L13.1344 37.768C13.0575 37.8374 12.9863 37.8955 12.9094 37.9555C11.5819 39.028 9.8925 39.5286 7.8225 39.5661H7.28437C5.02875 39.5961 2.80125 39.0111 0.84 37.8861L2.66438 34.2636C4.63688 35.4355 5.88 35.6886 7.54875 35.6605C8.41688 35.6399 9.04125 35.4824 9.45187 35.0624C9.6975 34.8093 9.83438 34.4868 9.84375 34.1343C9.86062 33.1968 8.51438 32.7599 6.88313 32.2499C5.55562 31.8393 4.04062 31.2749 2.86875 30.4049C1.47375 29.3905 0.79875 28.1005 0.838125 26.2855C0.8475 24.9955 1.35563 23.7655 2.25375 22.8486C3.55313 21.5005 5.64375 20.6886 8.16375 20.6886L8.16563 20.683ZM34.6481 24.853V29.6211H35.9587C37.6856 29.6211 39.0731 29.0436 39.0731 27.208C39.0731 25.4305 37.6856 24.853 35.9587 24.853H34.6481ZM21.9319 26.7768L20.0662 32.6736C20.6231 32.8893 21.2681 33.0055 21.9506 33.0055C22.6256 33.0055 23.2613 32.8874 23.805 32.6924L21.9694 26.7655L21.9319 26.7768Z" fill="black"/>
</svg>
