<svg width="60" height="60" viewBox="0 0 60 60" fill="none" xmlns="http://www.w3.org/2000/svg">
<g clip-path="url(#clip0_1837_35)">
<path d="M26.4382 59.9616C20.8219 59.5568 15.2709 58.1431 11.8665 56.2505C9.92738 55.1726 8.45003 53.8478 7.87031 52.6671L7.52539 51.9645V29.9291V7.89356L7.79832 7.33938C9.01801 4.8631 12.9106 2.63071 18.3444 1.29125C20.1889 0.836538 22.8518 0.383713 25.0242 0.155371C27.2424 -0.0778581 33.1221 -0.042374 35.3349 0.21794C41.2159 0.908883 46.2203 2.45573 49.3044 4.53593C50.4937 5.33813 51.7141 6.62173 52.1275 7.50528L52.482 8.26281L52.4517 30.2316L52.4213 52.2006L52.1368 52.7787C51.9803 53.0966 51.5076 53.7221 51.0863 54.1686C48.5219 56.887 43.0213 58.898 35.8063 59.7548C34.3357 59.9295 27.9469 60.0704 26.4382 59.9616ZM36.7882 41.0801C36.7666 41.0238 35.927 40.2759 34.9225 39.4179C33.9179 38.56 33.0527 37.8178 32.9998 37.7685C32.9469 37.7192 33.1325 37.5447 33.4123 37.3808C33.692 37.2168 34.2279 36.7606 34.6032 36.367C35.7008 35.2161 36.2186 33.7945 36.2186 31.9323C36.2186 30.099 35.6602 28.6199 34.5415 27.4908C33.4141 26.3527 32.1196 25.8636 30.2344 25.8636C27.3287 25.8636 25.097 27.5592 24.3847 30.308C24.1397 31.2535 24.141 33.1641 24.3873 34.0025C25.0297 36.1894 26.7791 37.7776 28.9564 38.1506C29.6932 38.2768 29.793 38.3312 30.2953 38.8804C30.5939 39.2068 31.2065 39.8583 31.6567 40.3281L32.4753 41.1825H34.6514C35.8483 41.1825 36.8098 41.1364 36.7882 41.0801ZM29.3255 34.9872C28.8016 34.714 28.6035 34.502 28.3048 33.8947C28.074 33.4256 28.0346 33.1588 28.032 32.0501C28.0294 30.9236 28.0653 30.6802 28.3062 30.191C28.7003 29.3905 29.2435 29.0116 30.0838 28.9508C31.2534 28.8659 31.9285 29.44 32.2823 30.8195C32.7162 32.5108 32.2391 34.3089 31.1983 34.9057C30.6522 35.2188 29.8377 35.2542 29.3255 34.9872ZM19.6799 38.1266C21.9615 37.6939 23.2566 36.3671 23.2566 34.4624C23.2566 32.7726 22.4205 31.788 20.1095 30.7564C18.7866 30.1658 18.3074 29.7951 18.3074 29.362C18.3074 29.003 18.7622 28.6097 19.2915 28.5108C19.8084 28.4143 21.1793 28.6524 21.9888 28.9794L22.6674 29.2536V27.7515V26.2494L21.9309 26.086C21.4758 25.985 20.5193 25.9244 19.4269 25.9275C17.8795 25.9275 17.5765 25.9652 16.9942 26.1965C15.2932 26.8717 14.4861 28.022 14.499 29.7523C14.5111 31.3722 15.3656 32.3826 17.4923 33.2916C18.7472 33.8279 19.2502 34.2363 19.2502 34.7189C19.2502 35.7445 17.5413 35.8707 15.7321 34.9787C15.2367 34.7345 14.7915 34.5147 14.7429 34.4904C14.6943 34.466 14.6545 35.1677 14.6545 36.0496C14.6545 37.646 14.6562 37.6537 14.9452 37.7637C16.0336 38.1775 18.4392 38.3619 19.6799 38.1266ZM45.7635 36.6457V35.2906H43.7013H41.6391V30.636V25.9815H39.8127H37.9862V31.9912V38.0009H41.8748H45.7635V36.6457ZM33.0371 12.8986C36.6666 12.6468 39.3873 12.1715 41.7814 11.3711C44.1666 10.5736 45.5755 9.60861 45.8907 8.55672C46.0121 8.15138 46.0034 7.99763 45.8337 7.5532C45.0728 5.56077 40.8221 4.02997 34.3266 3.40931C31.5482 3.14377 26.4952 3.22985 23.8459 3.58771C19.8036 4.13388 16.5231 5.14837 15.0644 6.30337C12.1137 8.63994 15.2341 11.2099 22.4907 12.4195C25.6371 12.9439 29.7136 13.1291 33.0371 12.8986Z" fill="black"/>
</g>
<defs>
<clipPath id="clip0_1837_35">
<rect width="60" height="60" fill="white"/>
</clipPath>
</defs>
</svg>
