<svg width="60" height="60" viewBox="0 0 60 60" fill="none" xmlns="http://www.w3.org/2000/svg">
<g clip-path="url(#clip0_1834_6)">
<path d="M62.3969 59.4641L55.3298 52.3972C57.2905 49.8226 58.4707 46.6199 58.4707 43.1459C58.4644 39.0847 56.8476 35.1917 53.9749 32.3208C51.1022 29.45 47.2081 27.8356 43.1468 27.8319C39.0871 27.8381 35.1955 29.4536 32.3248 32.3242C29.4542 35.1948 27.8387 39.0863 27.8324 43.1459C27.8362 47.208 29.4512 51.1027 32.3231 53.9755C35.1951 56.8483 39.0894 58.4645 43.1515 58.4695C46.6304 58.4695 49.8331 57.2893 52.403 55.3287L59.4701 62.3909C59.6609 62.5838 59.888 62.737 60.1384 62.8415C60.3888 62.9461 60.6574 62.9999 60.9287 62.9999C61.2001 62.9999 61.4687 62.9461 61.7191 62.8415C61.9694 62.737 62.1966 62.5838 62.3873 62.3909C62.5806 62.1996 62.7343 61.972 62.8394 61.7213C62.9445 61.4705 62.9991 61.2014 63 60.9295C63.0009 60.6576 62.948 60.3881 62.8445 60.1367C62.741 59.8852 62.5889 59.6567 62.3969 59.4641ZM31.9679 43.1459C31.9717 40.1811 33.1512 37.3387 35.2477 35.2423C37.3442 33.1458 40.1866 31.9663 43.1515 31.9626C46.1176 31.9626 48.9622 33.1408 51.0595 35.2381C53.1569 37.3354 54.3351 40.1799 54.3351 43.1459C54.3351 46.112 53.1569 48.9565 51.0595 51.0538C48.9622 53.1511 46.1176 54.3293 43.1515 54.3293C40.187 54.3243 37.3453 53.1444 35.2491 51.0482C33.1528 48.952 31.973 46.1104 31.9679 43.1459ZM49.5524 18.5187C49.5524 19.6608 48.6244 20.5841 47.4822 20.5841H26.7949C26.2471 20.5841 25.7218 20.3665 25.3345 19.9791C24.9471 19.5918 24.7295 19.0665 24.7295 18.5187C24.7295 17.9709 24.9471 17.4456 25.3345 17.0583C25.7218 16.671 26.2471 16.4534 26.7949 16.4534H47.4822C48.6244 16.4534 49.5524 17.3766 49.5524 18.5187ZM9.90053 58.8598H23.6921C24.2168 58.8954 24.7085 59.1289 25.0676 59.5132C25.4268 59.8976 25.6265 60.4039 25.6265 60.9299C25.6265 61.4559 25.4268 61.9622 25.0676 62.3465C24.7085 62.7308 24.2168 62.9644 23.6921 63H9.90053C6.10286 63 3 59.9067 3 56.0996V19.2944C3 18.3664 3.33313 17.467 3.928 16.7532L14.3692 4.33249C14.7194 3.91579 15.1563 3.58063 15.6495 3.35047C16.1428 3.12031 16.6803 3.00069 17.2246 3H50.9277C54.7301 3 57.8282 6.09327 57.8282 9.90038V24.7195C57.8282 25.2686 57.6101 25.7951 57.2219 26.1833C56.8337 26.5716 56.3071 26.7897 55.7581 26.7897C55.209 26.7897 54.6825 26.5716 54.2943 26.1833C53.906 25.7951 53.6879 25.2686 53.6879 24.7195V9.89562C53.6867 9.16605 53.3966 8.46666 52.8812 7.95033C52.3657 7.434 51.6668 7.14274 50.9372 7.14023H20.5892V19.1041C20.5804 19.9762 20.2264 20.8094 19.6048 21.4212C18.9831 22.0331 18.1444 22.3737 17.2722 22.3687H7.14507V56.1044C7.14507 57.6225 8.38241 58.8598 9.90053 58.8598ZM16.4536 8.28236L8.09211 18.2284H16.4536V8.28236ZM21.6267 39.2627C22.1757 39.2627 22.7023 39.0446 23.0905 38.6564C23.4787 38.2681 23.6968 37.7416 23.6968 37.1926C23.6968 36.6435 23.4787 36.117 23.0905 35.7288C22.7023 35.3406 22.1757 35.1225 21.6267 35.1225H14.3835C13.8344 35.1225 13.3079 35.3406 12.9197 35.7288C12.5314 36.117 12.3133 36.6435 12.3133 37.1926C12.3133 37.7416 12.5314 38.2681 12.9197 38.6564C13.3079 39.0446 13.8344 39.2627 14.3835 39.2627H21.6267ZM21.6267 48.7662C22.1751 48.7662 22.701 48.5483 23.0888 48.1606C23.4766 47.7728 23.6944 47.2468 23.6944 46.6984C23.6944 46.15 23.4766 45.6241 23.0888 45.2363C22.701 44.8486 22.1751 44.6307 21.6267 44.6307H14.3835C13.8351 44.6307 13.3091 44.8486 12.9213 45.2363C12.5336 45.6241 12.3157 46.15 12.3157 46.6984C12.3157 47.2468 12.5336 47.7728 12.9213 48.1606C13.3091 48.5483 13.8351 48.7662 14.3835 48.7662H21.6267ZM23.6921 25.7855H14.3835C13.8351 25.7855 13.3091 26.0034 12.9213 26.3912C12.5336 26.7789 12.3157 27.3049 12.3157 27.8533C12.3157 28.4017 12.5336 28.9276 12.9213 29.3154C13.3091 29.7032 13.8351 29.921 14.3835 29.921H23.6921C24.2405 29.921 24.7664 29.7032 25.1542 29.3154C25.542 28.9276 25.7598 28.4017 25.7598 27.8533C25.7598 27.3049 25.542 26.7789 25.1542 26.3912C24.7664 26.0034 24.2405 25.7855 23.6921 25.7855Z" fill="black"/>
</g>
<defs>
<clipPath id="clip0_1834_6">
<rect width="60" height="60" fill="white"/>
</clipPath>
</defs>
</svg>
