<svg width="60" height="60" viewBox="0 0 60 60" fill="none" xmlns="http://www.w3.org/2000/svg">
<path fill-rule="evenodd" clip-rule="evenodd" d="M53.9644 8.25932H34.9706V3.78369L3.75 8.60244V50.8406L34.9706 56.2181V49.5843H53.9644C54.5396 49.6135 55.103 49.4136 55.5313 49.0285C55.9596 48.6434 56.218 48.1044 56.25 47.5293V10.3124C56.2175 9.73768 55.9589 9.19913 55.5307 8.81443C55.1024 8.42973 54.5393 8.23016 53.9644 8.25932ZM54.2644 47.8706H34.9069L34.875 44.3287H39.5381V40.2037H34.8394L34.8169 37.7662H39.5381V33.6412H34.7812L34.7588 31.2037H39.5381V27.0787H34.7438V24.6412H39.5381V20.5162H34.7438V18.0787H39.5381V13.9537H34.7438V10.2037H54.2644V47.8706Z" fill="black"/>
<path d="M50.2697 13.9482H42.1641V18.0732H50.2697V13.9482Z" fill="black"/>
<path d="M50.2697 20.5125H42.1641V24.6375H50.2697V20.5125Z" fill="black"/>
<path d="M50.2697 27.0769H42.1641V31.2019H50.2697V27.0769Z" fill="black"/>
<path d="M50.2697 33.6414H42.1641V37.7664H50.2697V33.6414Z" fill="black"/>
<path d="M50.2697 40.2056H42.1641V44.3306H50.2697V40.2056Z" fill="black"/>
<path fill-rule="evenodd" clip-rule="evenodd" d="M11.8997 20.0118L15.9234 19.7812L18.4528 26.7355L21.4416 19.4943L25.4653 19.2637L20.5791 29.1374L25.4653 39.0355L21.2109 38.7487L18.3384 31.2037L15.4641 38.4618L11.5547 38.1168L16.0959 29.3737L11.8997 20.0118Z" fill="white"/>
</svg>
