<svg width="61" height="60" viewBox="0 0 61 60" fill="none" xmlns="http://www.w3.org/2000/svg">
<path d="M36.3167 0.45L38.5556 0.95L40.3715 1.6L41.8391 2.35L42.9585 3.15L43.8043 4L44.4262 4.85L44.8242 5.675L45.073 6.425L45.1725 7.075L45.2222 7.575L45.1973 7.9V21.25L45.073 22.825L44.7496 24.2L44.2272 25.35L43.5804 26.3L42.8342 27.075L42.0133 27.7L41.1426 28.175L40.272 28.525L39.4511 28.775L38.7048 28.95L38.058 29.05L37.5357 29.1H22.6849L20.9685 29.225L19.5008 29.575L18.257 30.125L17.2371 30.8L16.4162 31.6L15.7446 32.475L15.2471 33.375L14.874 34.3L14.6252 35.175L14.4511 35.975L14.3516 36.65L14.3018 37.175V44.825H8.75455L8.23217 44.75L7.53565 44.575L6.73963 44.275L5.86898 43.825L4.97346 43.175L4.07794 42.275L3.20729 41.125L2.41127 39.65L1.71475 37.825L1.19236 35.625L0.844105 33L0.719727 29.925L0.86898 26.875L1.26699 24.275L1.86401 22.1L2.66003 20.325L3.55555 18.9L4.55057 17.8L5.59535 16.975L6.64012 16.375L7.63515 15.975L8.53067 15.725L9.32669 15.6L9.92371 15.575H10.3217L10.471 15.6H30.7695V13.525H16.2421L16.2172 6.65L16.1675 5.725L16.2919 4.875L16.5655 4.1L16.9884 3.4L17.6103 2.75L18.3814 2.175L19.3267 1.675L20.4212 1.225L21.6899 0.85L23.1327 0.55L24.7247 0.3L26.4909 0.15L28.4063 0.05L30.4958 0L33.6551 0.125L36.3167 0.45ZM20.6451 5.4L20.073 6.225L19.874 7.25L20.073 8.275L20.6451 9.125L21.466 9.675L22.4859 9.9L23.5058 9.675L24.3267 9.125L24.8988 8.275L25.0978 7.25L24.8988 6.225L24.3267 5.4L23.5058 4.85L22.4859 4.625L21.466 4.85L20.6451 5.4ZM53.2073 15.275L53.9038 15.425L54.6998 15.725L55.5705 16.175L56.466 16.85L57.3615 17.725L58.2322 18.9L59.0282 20.375L59.7247 22.2L60.2471 24.4L60.5954 27L60.7197 30.075L60.5705 33.15L60.1725 35.75L59.5755 37.9L58.7794 39.675L57.8839 41.1L56.8889 42.225L55.8441 43.05L54.7993 43.65L53.8043 44.05L52.9088 44.275L52.1128 44.4L51.5158 44.45L51.1177 44.425H30.67V46.475H45.1973L45.2222 53.375L45.272 54.275L45.1476 55.125L44.874 55.9L44.4511 56.625L43.8292 57.25L43.058 57.85L42.1128 58.35L41.0182 58.775L39.7496 59.15L38.3068 59.475L36.7148 59.7L34.9486 59.875L33.0332 59.975L30.9436 60L27.7844 59.9L25.1227 59.55L22.8839 59.05L21.068 58.425L19.6003 57.675L18.4809 56.85L17.6352 56L17.0133 55.15L16.6153 54.325L16.3665 53.575L16.267 52.95L16.2172 52.45L16.2421 52.125V38.775L16.3665 37.175L16.6899 35.825L17.2123 34.675L17.859 33.725L18.6053 32.925L19.4262 32.325L20.2968 31.825L21.1675 31.475L21.9884 31.225L22.7347 31.075L23.3814 30.975L23.9038 30.925L24.2272 30.9H38.7546L40.471 30.775L41.9386 30.425L43.1824 29.9L44.2023 29.2L45.0232 28.4L45.6949 27.525L46.1924 26.625L46.5655 25.725L46.8143 24.85L46.9884 24.05L47.0879 23.35L47.1376 22.825V15.175H52.3366L52.6849 15.2L53.2073 15.275ZM37.1128 50.9L36.5406 51.725L36.3416 52.75L36.5406 53.775L37.1128 54.6L37.9337 55.175L38.9536 55.375L39.9735 55.175L40.7944 54.6L41.3665 53.775L41.5655 52.75L41.3665 51.725L40.7944 50.9L39.9735 50.325L38.9536 50.125L37.9337 50.325L37.1128 50.9Z" fill="black"/>
</svg>
